<?xml version="1.0" encoding="utf-8"?>
<svg xmlns="http://www.w3.org/2000/svg" width="186" height="48" viewBox="0 0 186 48" fill="none">
<g clip-path="url(#clip0_3206_1008)">
<mask id="mask0_3206_1008" style="mask-type:luminance" maskUnits="userSpaceOnUse" x="0" y="1" width="205" height="47">
<path d="M0 1H205V47.945H0V1Z" fill="white"/>
</mask>
<g mask="url(#mask0_3206_1008)">
<path fill-rule="evenodd" clip-rule="evenodd" d="M23.4674 37.3823C16.3392 37.3823 10.5606 31.6029 10.5606 24.4725C10.5606 17.3427 16.3392 11.5622 23.4674 11.5622V0.999695C10.5066 0.999695 0 11.5087 0 24.4725C0 37.4359 10.5066 47.9449 23.4674 47.9449C36.4278 47.9449 46.9348 37.4359 46.9348 24.4725H36.3742C36.3742 31.6029 30.5956 37.3823 23.4674 37.3823Z" fill="#2354E6"/>
</g>
<mask id="mask1_3206_1008" style="mask-type:luminance" maskUnits="userSpaceOnUse" x="0" y="1" width="205" height="47">
<path d="M0 1H205V47.945H0V1Z" fill="white"/>
</mask>
<g mask="url(#mask1_3206_1008)">
<path fill-rule="evenodd" clip-rule="evenodd" d="M23.4673 24.4724H36.3742V11.5626H23.4673V24.4724Z" fill="#17E6A1"/>
</g>
<mask id="mask2_3206_1008" style="mask-type:luminance" maskUnits="userSpaceOnUse" x="21" y="4" width="165" height="39">
<path d="M21.2927 4.5H185.341V42.839H21.2927V4.5Z" fill="white"/>
</mask>
<g mask="url(#mask2_3206_1008)">
<path fill-rule="evenodd" clip-rule="evenodd" d="M157.104 15.894H161.762V11.1382H157.104V15.894ZM132.34 23.8139C133.231 21.4042 135.51 19.6885 138.183 19.6885C140.856 19.6885 143.136 21.4042 144.026 23.8139H132.34ZM138.183 15.2668C132.344 15.2668 127.608 20.1001 127.608 26.0625C127.608 32.0249 132.344 36.8574 138.183 36.8574C142.191 36.8574 145.677 34.5829 147.472 31.2302L143.564 29.295C142.478 31.1742 140.475 32.4357 138.183 32.4357C135.287 32.4357 132.853 30.4233 132.147 27.6939H144.22C144.219 27.6958 144.218 27.6986 144.218 27.701H148.64C148.72 27.1665 148.761 26.6193 148.761 26.0625C148.761 20.1001 144.025 15.2668 138.183 15.2668ZM149.989 36.2819H154.648V31.5261H149.989V36.2819ZM157.104 36.2819H161.762V17.9847H157.104V36.2819ZM174.766 32.4357C171.318 32.4357 168.522 29.5822 168.522 26.0625C168.522 22.542 171.318 19.6885 174.766 19.6885C178.214 19.6885 181.01 22.542 181.01 26.0625C181.01 29.5822 178.214 32.4357 174.766 32.4357ZM174.764 15.2668C168.924 15.2668 164.189 20.1001 164.189 26.0625C164.189 32.0249 168.924 36.8574 174.764 36.8574C180.606 36.8574 185.342 32.0249 185.342 26.0625C185.342 20.1001 180.606 15.2668 174.764 15.2668ZM77.357 22.083V27.0003H83.8712C83.5311 28.4053 82.8586 29.6645 81.8943 30.6703C80.4399 32.1875 78.4233 33.0235 76.2154 33.0235C71.634 33.0235 67.9062 29.2187 67.9062 24.5417C67.9062 19.8646 71.634 16.0594 76.2154 16.0594C78.6695 16.0594 80.9254 17.1316 82.4893 18.9809L86.219 15.8701C83.7461 12.912 80.0772 11.1418 76.2154 11.1418C68.9777 11.1418 63.0891 17.1531 63.0891 24.5417C63.0891 31.9302 68.9777 37.9411 76.2154 37.9411C79.7297 37.9411 82.9693 36.6486 85.3377 34.178C87.3251 32.1044 88.6424 29.2119 88.8956 26.3142C89.0191 24.9008 89.0304 23.4969 88.9575 22.083H77.357ZM101.087 32.4369C97.6388 32.4369 94.843 29.5826 94.843 26.0625C94.843 22.5416 97.6388 19.6881 101.087 19.6881C104.536 19.6881 107.332 22.5416 107.332 26.0625C107.332 29.5826 104.536 32.4369 101.087 32.4369ZM107.333 17.3706C105.582 16.0606 103.424 15.2851 101.087 15.2851C95.2474 15.2851 90.5133 20.118 90.5133 26.0792C90.5133 32.0412 95.2474 36.8733 101.087 36.8733C103.424 36.8733 105.582 36.0981 107.333 34.7881V36.2819H111.662V15.8769H107.333V17.3706ZM120.955 11.1386H116.625V15.894H114.03V20.0647H116.625V30.9793C116.625 32.1064 116.764 33.0545 117.039 33.7986C117.31 34.5348 117.725 35.111 118.218 35.5612C118.717 36.0182 119.303 36.3741 119.998 36.5762C120.704 36.779 121.482 36.8574 122.306 36.8574C123.158 36.8574 123.917 36.7671 124.566 36.5885C125.168 36.4235 125.745 36.19 126.282 35.8933V32.5327C125.428 32.9097 124.629 33.0462 123.718 33.0895C122.757 33.1356 122.188 32.8553 121.715 32.3947C121.219 31.9123 120.955 31.2835 120.955 30.2288V20.0647H126.282V15.894H120.955V11.1386Z" fill="white"/>
</g>
</g>
<defs>
<clipPath id="clip0_3206_1008">
<rect width="186" height="48" fill="white"/>
</clipPath>
</defs>
</svg>