<?xml version="1.0" encoding="utf-8"?>
<svg xmlns="http://www.w3.org/2000/svg" width="186" height="37" viewBox="0 0 186 37" fill="none">
<g clip-path="url(#clip0_3206_1027)">
<path d="M58.3539 25.9222L45.6799 3.93768C42.9014 -0.644454 36.1256 -0.693202 33.4445 4.13265L20.1369 26.9946C17.6508 31.1868 20.7218 36.4513 25.694 36.4513H52.358C57.379 36.4513 61.1324 31.0404 58.3539 25.9222Z" fill="#3156AA"/>
<path d="M40.0738 27.6288L39.2939 26.2639C38.5627 24.9964 36.954 22.2666 36.954 22.2666L26.2299 3.64565C23.4514 -0.497769 16.8707 -0.838994 14.0922 4.37684L1.61316 25.9714C-0.97039 30.5047 2.10062 36.403 7.70643 36.4519H34.2242H45.5334H52.2604C45.3872 36.5006 43.1937 32.942 40.0738 27.6288Z" fill="#1972E2"/>
<path d="M40.0744 27.6281L39.2945 26.2634C38.5633 24.9959 36.9547 22.2661 36.9547 22.2661L30.0327 10.0796L20.0885 27.0433C17.6026 31.2354 20.6735 36.5 25.6457 36.5H34.1761H45.4853H52.261C45.3391 36.4512 43.1942 32.9416 40.0744 27.6281Z" fill="url(#paint0_linear_3206_1027)"/>
<path d="M108.708 30.593V6.45142H128.772V7.98055C128.772 9.1853 127.799 10.1584 126.594 10.1584H113.713V16.6455H126.594V20.3526H113.713V26.8396H126.594C127.799 26.8396 128.772 27.8127 128.772 29.0175V30.5467L108.708 30.593Z" fill="white"/>
<path d="M160.19 6.45142H155.463C154.583 6.45142 153.795 6.82211 153.239 7.51716L147.54 14.6994L141.84 7.56351C141.284 6.86845 140.496 6.49775 139.616 6.49775H134.89L144.481 18.5453L134.89 30.593H139.616C140.496 30.593 141.284 30.2224 141.84 29.5273L147.54 22.3914L153.285 29.5736C153.841 30.2224 154.629 30.6393 155.51 30.6393H160.236L150.644 18.5917L160.19 6.45142Z" fill="white"/>
<path d="M90.4046 28.0451L96.9844 16.5535V30.5473H101.989V6.4057H98.8843C97.9112 6.4057 96.9844 6.9154 96.5211 7.7958L88.6438 22.1603L80.7665 7.7958C80.3031 6.9154 79.3763 6.4057 78.4032 6.4057H75.2987V30.5473H80.3031V16.5535L86.8829 28.0451H90.4046Z" fill="white"/>
<path d="M175.852 30.871C168.901 30.9637 163.248 25.4958 163.202 18.5453C163.202 14.7457 164.36 11.5947 166.538 9.4169C168.716 7.28539 171.867 6.12695 175.62 6.12695C180.022 6.12695 183.498 7.65608 186 10.6217L184.424 11.9655C183.451 12.7995 182.015 12.8459 180.949 12.0581C179.559 10.9924 177.798 10.4827 175.806 10.4827C170.894 10.4827 167.975 13.4482 167.975 18.4527C167.975 23.5034 170.986 26.608 175.806 26.608C177.844 26.608 179.559 26.0519 180.949 25.0325C181.968 24.2447 183.405 24.2912 184.424 25.1252L186 26.4689C183.498 29.3882 180.161 30.871 175.852 30.871Z" fill="white"/>
</g>
<defs>
<linearGradient id="paint0_linear_3206_1027" x1="16.5495" y1="19.3355" x2="47.3561" y2="30.7198" gradientUnits="userSpaceOnUse">
<stop stop-color="#264CA2" stop-opacity="0"/>
<stop offset="1" stop-color="#234588"/>
</linearGradient>
<clipPath id="clip0_3206_1027">
<rect width="186" height="37" fill="white"/>
</clipPath>
</defs>
</svg>