<?xml version="1.0" encoding="utf-8"?>
<svg xmlns="http://www.w3.org/2000/svg" width="202" height="55" viewBox="0 0 202 55" fill="none">
<g clip-path="url(#clip0_3206_1024)">
<path fill-rule="evenodd" clip-rule="evenodd" d="M0.95437 1.7269C7.04289 9.19105 13.7279 18.5683 14.8092 20.085C14.8669 20.1659 14.9086 20.2244 14.9334 20.2591C15.5098 21.0638 15.9857 21.662 16.347 22.1163C17.1492 23.1247 17.3873 23.424 16.9086 23.6989C16.5225 23.9205 16.1242 23.9936 15.7268 23.9936C15.2772 23.9936 14.7708 23.775 14.402 23.4217C14.1414 23.172 12.3578 20.5555 9.92912 16.7491C8.07086 13.8366 6.51571 11.4206 6.47328 11.3801C6.3752 11.2866 6.37687 11.2897 9.73966 17.3672C11.8512 21.1835 13.2956 24.0037 13.2956 24.1841C13.2956 24.5511 13.1964 24.744 12.7482 25.249C12.001 26.0911 11.667 27.0371 11.4259 28.9949C11.1556 31.1897 10.3955 32.7402 8.28906 35.3935C7.05604 36.9469 6.85429 37.2315 6.54316 37.8576C6.15128 38.646 6.0435 39.0875 5.99983 40.0831C5.95367 41.1358 6.04358 41.8157 6.36195 42.8219C6.64068 43.703 6.9316 44.2849 7.67536 45.4486C8.31722 46.4525 8.6868 47.1987 8.6868 47.4907C8.6868 47.723 8.7307 47.7233 9.72531 47.4965C12.1055 46.9534 14.0383 45.9988 15.1253 44.8285C15.798 44.1041 15.956 43.7043 15.9611 42.7118C15.9644 42.0625 15.9418 41.9267 15.7681 41.5532C15.4853 40.9451 14.9704 40.4398 13.8357 39.6563C12.3488 38.6295 11.7137 37.8031 11.5383 36.6663C11.3944 35.7338 11.5614 35.0756 12.3839 33.3344C13.2353 31.5319 13.4462 30.7639 13.589 28.9469C13.6811 27.7732 13.8088 27.3103 14.1427 26.9388C14.4909 26.5514 14.8044 26.4201 15.6661 26.301C17.0711 26.1073 17.9657 25.7401 18.701 25.0557C19.3389 24.4619 19.6059 23.8898 19.6468 23.0285L19.6779 22.3757L19.3214 21.9559C18.0305 20.4355 0.0898248 0.531738 0.0103791 0.531738C-0.00659285 0.531738 0.41822 1.0696 0.95437 1.7269ZM9.41149 41.2742C9.70337 40.7519 9.54829 40.0808 9.06004 39.7528C8.59872 39.443 7.88211 39.589 7.88211 39.9927C7.88211 40.1159 7.94954 40.2055 8.10158 40.2847C8.35754 40.4177 8.37613 40.5673 8.17473 40.873C7.97077 41.1827 7.98722 41.4549 8.22117 41.6398C8.59821 41.9381 9.13194 41.7741 9.41149 41.2742ZM18.1969 12.8014C17.621 12.7112 17.5967 12.7006 17.8677 12.6585C18.3871 12.5778 19.6135 12.6878 20.4587 12.8908C22.4317 13.3645 24.2271 14.5781 26.1435 16.7333L26.6526 17.3059L27.381 17.1876C30.4494 16.6896 33.5709 17.0854 36.1818 18.3036C36.9001 18.6388 38.0325 19.306 38.1739 19.4774C38.2188 19.5321 38.3019 19.8838 38.3577 20.2591C38.5517 21.5575 38.4547 22.5528 38.0614 23.2961C37.8476 23.7006 37.8357 23.8288 37.9794 24.175C38.0942 24.4513 38.4144 24.6557 38.7315 24.6553C39.3802 24.6544 40.0784 23.595 40.4022 22.121L40.5306 21.5354L40.7853 21.8268C42.1818 23.4251 43.2789 25.6047 43.4673 27.1562L43.5163 27.5606L43.2817 27.193C42.8774 26.5603 42.4717 26.1294 41.9517 25.782C41.0148 25.1557 40.0238 24.9426 37.4 24.8029C35.0301 24.6768 33.689 24.4723 32.359 24.0342C30.096 23.2891 28.9555 22.2966 26.2674 18.7345C25.0736 17.1523 24.3357 16.2769 23.6017 15.572C21.9337 13.9702 20.2948 13.1301 18.1969 12.8014ZM38.7084 16.334C38.768 15.2738 38.9105 14.5745 39.1966 13.9359C39.3099 13.6831 39.416 13.4762 39.4322 13.4762C39.4487 13.4762 39.3995 13.6628 39.3228 13.8908C39.1149 14.5106 39.0806 15.3583 39.224 16.3446C39.4058 17.596 39.5094 17.7766 40.8188 19.1284C41.433 19.7625 42.1475 20.5622 42.4065 20.9055L42.8774 21.5298L42.4065 21.0836C41.8306 20.5381 40.5063 19.474 40.2138 19.3219C40.0175 19.2199 39.9883 19.2217 39.8674 19.3433C39.756 19.4554 39.7324 19.6238 39.7169 20.4201C39.6927 21.6611 39.5254 22.4576 39.1212 23.2541C38.9026 23.6848 38.8681 23.5929 39.0659 23.1067C39.2136 22.7436 39.2286 22.584 39.2276 21.3827C39.2253 18.9689 38.9415 18.3886 37.2776 17.3945C36.8564 17.1427 36.1617 16.7795 35.7344 16.5874C35.3074 16.3953 34.9679 16.228 34.9801 16.2155C35.0273 16.1681 36.65 16.6465 37.303 16.9002C38.2745 17.2777 38.4347 17.3266 38.5527 17.281C38.6317 17.2505 38.67 17.0179 38.7084 16.334ZM17.5796 14.4809C17.423 16.3445 18.1464 18.8374 19.3157 20.4633C20.222 21.7237 21.6271 22.7032 22.6643 22.7978C23.3435 22.8597 23.5476 22.6449 23.2403 22.1917C22.8138 21.5624 22.2891 20.5935 22.1502 20.1787C22.064 19.921 21.8766 19.1598 21.7337 18.4871C21.246 16.1905 20.7666 15.2962 19.6593 14.6169C19.2557 14.3693 18.394 14.0454 17.8942 13.9533L17.6281 13.9042L17.5796 14.4809ZM37.2903 32.5643C31.8261 30.3421 29.9015 28.4132 29.9015 25.1587C29.9015 24.6797 29.918 24.2878 29.9378 24.2878C29.9579 24.2878 30.1691 24.4459 30.4075 24.6391C31.5156 25.5368 32.7564 25.9202 36.1914 26.4262C38.2125 26.7243 39.35 26.9647 40.3994 27.3164C43.7344 28.4336 45.7978 30.7006 46.2899 33.7889C46.4328 34.6862 46.349 36.3688 46.1172 37.2556C45.9342 37.9562 45.3756 39.2186 45.2276 39.2671C45.1864 39.2805 45.1461 39.1216 45.1357 38.9052C45.0795 37.7457 44.4994 36.6168 43.5252 35.7711C42.4174 34.8096 40.929 34.0443 37.2903 32.5643ZM33.1903 32.3198C33.267 32.5506 33.3858 33.0759 33.4541 33.4875C33.8918 36.1184 32.5246 38.2441 29.865 39.0677C29.5834 39.1548 28.4743 39.3742 27.4003 39.5547C25.2263 39.9203 24.2559 40.1793 23.2811 40.6536C22.5898 40.99 21.7529 41.4938 21.8026 41.5438C21.8186 41.56 21.9764 41.522 22.1532 41.4592C23.3825 41.0233 24.7505 40.7976 26.8291 40.6884C27.654 40.6452 28.5921 40.5762 28.9141 40.5353C30.7658 40.2997 32.0493 39.7314 33.0474 38.7054C33.6027 38.1344 33.9337 37.6025 34.2006 36.8524C34.3697 36.3766 34.3925 36.1999 34.3938 35.357C34.3953 34.498 34.3748 34.3408 34.1915 33.8125C33.9515 33.1198 33.6684 32.6001 33.3099 32.1936L33.0509 31.9001L33.1903 32.3198ZM35.9591 37.9808C35.233 36.4043 35.0664 34.8824 35.464 33.4631C35.5067 33.3113 35.575 33.1871 35.6164 33.1871C35.6575 33.1871 35.8286 33.2808 35.9969 33.3951C36.3313 33.6226 37.0024 34.0057 38.7899 34.9901C41.0207 36.2185 42.2925 37.1696 43.1572 38.2565C43.9146 39.2082 44.3833 40.2921 44.6088 41.6139C44.7368 42.3626 44.6619 44.1643 44.4717 44.9182C43.872 47.2954 42.4781 49.1626 40.49 50.2524C40.1988 50.4118 39.9373 50.5429 39.9088 50.5436C39.8806 50.5441 39.9868 50.2717 40.1447 49.9378C40.8135 48.5256 40.8896 47.152 40.3841 45.6232C40.0744 44.6871 39.4432 43.5448 38.1686 41.6141C36.6868 39.3696 36.3235 38.7722 35.9591 37.9808ZM22.284 43.1513C19.9859 43.5283 17.463 44.7567 15.4352 46.486L14.8316 47.0009L15.3621 47.0847C18.1306 47.5212 18.8761 47.9084 20.7965 49.9066C21.9017 51.0562 22.2749 51.3122 23.1915 51.5486C24.5379 51.8956 25.865 51.2578 26.3202 50.0447C26.5236 49.5026 26.4964 48.6051 26.2631 48.1544C25.7081 47.0812 24.091 46.7343 23.3091 47.5204C22.6578 48.1752 22.8476 49.1616 23.6576 49.3312C23.8431 49.3703 23.8378 49.362 23.6104 49.2581C23.2558 49.0961 23.1018 48.8717 23.0999 48.5144C23.0953 47.6768 24.0443 47.2066 24.9271 47.6088C25.5735 47.9035 25.8302 48.2885 25.8302 48.9633C25.8302 50.0025 24.9546 50.7856 23.9355 50.6576C23.3908 50.5891 22.7247 50.2372 22.3675 49.8294C21.4687 48.8029 21.8188 47.183 23.0737 46.5614C24.029 46.0884 25.2989 46.2049 26.2837 46.8562C27.4151 47.6047 27.8962 48.2887 28.8707 50.5337C29.1881 51.2647 29.5963 52.0876 29.7779 52.3623C30.7011 53.758 31.8071 54.4425 33.1393 54.4425C33.8741 54.4425 34.4268 54.307 35.1223 53.9563C35.6389 53.6956 36.3715 53.2002 36.3186 53.1471C36.3037 53.1321 36.0894 53.1994 35.8423 53.2967C34.3877 53.8697 32.909 53.8304 32.0503 53.1954C31.5095 52.7957 31.0733 51.9995 30.8491 51.0037C30.8102 50.8313 30.6823 50.0701 30.5645 49.3119C30.2659 47.3904 29.9792 46.5266 29.3107 45.5354C28.6267 44.5213 27.3117 43.6702 25.8416 43.2901C24.9244 43.053 23.2745 42.9885 22.284 43.1513ZM19.0654 28.2947C19.2639 27.5543 19.905 26.8482 20.5645 26.6435C20.9839 26.5136 21.8508 26.5966 22.2585 26.8058C23.0484 27.2115 23.6218 28.1355 23.4974 28.8025C23.3456 29.6157 22.0399 30.2665 20.5379 30.2771C19.7707 30.2825 19.4873 30.1784 19.1944 29.7833C19.013 29.5385 18.9443 28.7464 19.0654 28.2947ZM22.0568 27.0957C22.4507 27.3387 22.552 27.698 22.3204 28.0304C22.1609 28.2594 21.6669 28.477 21.306 28.477C20.7637 28.477 20.1721 28.088 20.1721 27.7318C20.1721 27.016 21.3066 26.6329 22.0568 27.0957Z" fill="#FF007A"/>
<path fill-rule="evenodd" clip-rule="evenodd" d="M124.81 30.3173C123.901 27.2912 125.401 24.7812 128.602 23.9746C129.52 23.7432 133.678 23.8476 134.39 24.1201C134.652 24.2199 134.765 24.6032 134.768 25.3908C134.77 26.0111 134.837 26.7645 134.918 27.0649C135.04 27.5203 134.969 27.6099 134.488 27.6026C134.054 27.5958 133.791 27.3411 133.424 26.5704C132.838 25.3396 132.128 24.948 130.474 24.9434C128.363 24.9374 126.818 26.3589 127.069 28.0765C127.233 29.1942 128.35 30.294 130.856 31.8058C133.241 33.244 134.632 34.4267 135.187 35.4863C136.67 38.3193 135.403 41.3509 132.1 42.8785C130.404 43.6625 127.562 43.7435 125.563 43.0649L124.284 42.6302V40.5856C124.284 38.7338 124.328 38.5406 124.75 38.5406C125.103 38.5406 125.256 38.774 125.379 39.505C125.688 41.3229 127.069 42.4264 129.037 42.4264C130.964 42.4264 132.311 41.3734 132.827 39.4639C133.047 38.6505 133.009 38.3506 132.573 37.4533C132.051 36.3774 131.151 35.6635 128.095 33.9006C126.399 32.9222 125.2 31.6141 124.81 30.3173ZM64.9051 25.1826C64.4881 25.1826 64.3254 25.0464 64.3254 24.6969C64.3254 24.2342 64.4881 24.2112 67.7556 24.2112C70.7884 24.2112 71.1765 24.2568 71.107 24.6049C71.0634 24.8215 70.6444 25.1219 70.1752 25.2728L69.322 25.5469L69.2492 31.7402C69.2004 35.8728 69.269 38.2567 69.455 38.9048C70.0083 40.8323 71.6961 41.9408 74.0774 41.9408C75.7351 41.9408 76.7035 41.5532 77.9202 40.4022C79.2288 39.1648 79.4375 37.989 79.4334 31.8782C79.4294 25.8506 79.3244 25.3531 78.0299 25.2281C77.4408 25.171 77.2434 25.0338 77.2434 24.6816C77.2434 24.2425 77.4378 24.2112 80.1682 24.2112C82.9304 24.2112 83.0929 24.2381 83.0929 24.6969C83.0929 24.9961 82.9291 25.1841 82.6663 25.1863C81.5375 25.1962 81.5168 25.3036 81.3649 31.9131C81.2073 38.7768 81.06 39.5895 79.669 41.2708C79.2678 41.7559 78.3111 42.4601 77.5431 42.836C76.2916 43.4485 75.8935 43.5188 73.7092 43.5149C71.6957 43.5107 71.06 43.4135 70.0532 42.9552C68.5835 42.2862 67.6278 41.4203 66.9231 40.1192C66.4313 39.211 66.3893 38.7195 66.2754 32.5659C66.145 25.5222 66.0818 25.1826 64.9051 25.1826ZM87.7124 25.1826C87.1552 25.1826 86.9927 25.0729 86.9927 24.6969C86.9927 24.2415 87.1484 24.2124 89.4908 24.2311L91.9892 24.251L93.1845 25.6276C93.8415 26.3846 95.9838 28.7529 97.9445 30.89C99.9054 33.0274 102.157 35.5137 102.947 36.4153C103.738 37.3172 104.482 38.0548 104.601 38.0548C104.723 38.0548 104.784 35.5076 104.74 32.2045L104.663 26.3543L103.979 25.7685C103.603 25.4462 103.028 25.1826 102.7 25.1826C102.264 25.1826 102.104 25.0505 102.104 24.6901C102.104 24.2158 102.229 24.2 105.455 24.2651C108.199 24.3205 108.807 24.397 108.807 24.687C108.807 24.8936 108.467 25.1105 107.992 25.2074C107.544 25.2988 107.05 25.4999 106.895 25.6543C106.695 25.8537 106.593 28.4318 106.543 34.5451L106.474 43.155H105.767C105.159 43.155 104.435 42.4707 100.565 38.2369C98.0923 35.5318 95.206 32.3169 94.1511 31.0927C93.096 29.8683 92.1506 28.8573 92.0501 28.8462C91.7671 28.8145 91.8356 39.7531 92.1249 40.7914C92.3506 41.6005 92.5057 41.7398 93.4643 41.9955C94.2363 42.2011 94.5484 42.4098 94.5484 42.7197C94.5484 43.1177 94.2542 43.155 91.1362 43.155C87.9622 43.155 87.7239 43.1233 87.7239 42.6997C87.7239 42.3896 87.9535 42.1987 88.444 42.1008C89.9323 41.8043 90.0311 41.3336 90.1146 34.1381C90.1614 30.1081 90.0928 27.2884 89.9331 26.6979C89.6526 25.6597 88.9536 25.1826 87.7124 25.1826ZM113.269 25.1826C112.747 25.1826 112.585 25.0673 112.585 24.6969C112.585 24.2328 112.747 24.2112 116.241 24.2112C119.734 24.2112 119.897 24.2328 119.897 24.6969C119.897 25.0532 119.734 25.1826 119.287 25.1826C118.952 25.1826 118.454 25.4056 118.181 25.6781C117.698 26.1593 117.685 26.3985 117.754 33.8342C117.821 41.0929 117.85 41.5129 118.298 41.8392C118.558 42.0286 119.024 42.1836 119.334 42.1836C119.734 42.1836 119.897 42.3237 119.897 42.6694C119.897 43.1335 119.734 43.155 116.241 43.155C112.83 43.155 112.585 43.1245 112.585 42.7005C112.585 42.3585 112.824 42.2075 113.55 42.0918C114.993 41.862 115.066 41.3915 114.976 32.9953C114.905 26.2715 114.874 25.8522 114.427 25.527C114.167 25.3376 113.646 25.1826 113.269 25.1826ZM138.772 25.1826C138.438 25.1826 138.185 24.9978 138.106 24.6969C137.983 24.2272 138.099 24.2112 141.612 24.2112C145.082 24.2112 145.245 24.2328 145.245 24.6969C145.245 25.0702 145.082 25.1826 144.543 25.1826C143.009 25.1826 143.044 25.4605 145.366 31.812C146.548 35.0452 147.695 38.1165 147.916 38.6369L148.317 39.5835L150.179 34.6295C152.37 28.7983 152.655 27.7199 152.282 26.6564C152.023 25.9151 151.015 25.1826 150.254 25.1826C150.038 25.1826 149.876 24.9738 149.876 24.6969C149.876 24.2321 150.038 24.2112 153.654 24.2112C157.269 24.2112 157.432 24.2321 157.432 24.6969C157.432 25.0425 157.269 25.1826 156.869 25.1826C155.844 25.1826 155.392 25.7272 155.539 26.7851C155.691 27.8742 159.883 39.5787 160.059 39.4036C160.345 39.1188 164.987 26.5187 164.987 26.0276C164.987 25.4391 164.574 25.1826 163.627 25.1826C163.2 25.1826 163.037 25.0488 163.037 24.6969C163.037 24.2381 163.2 24.2112 165.962 24.2112C168.443 24.2112 168.887 24.2685 168.887 24.5881C168.887 24.7955 168.583 25.0707 168.212 25.1997C167.376 25.4899 167.166 25.8212 166.118 28.5046C165.658 29.683 164.218 33.371 162.917 36.6998C161.617 40.0289 160.497 42.8979 160.428 43.0753C160.36 43.2528 159.957 43.398 159.532 43.398H158.761L157.01 38.8441C156.047 36.3397 154.91 33.3726 154.482 32.2505C153.75 30.3279 153.688 30.2444 153.413 30.7931C153.252 31.1138 152.095 34.0863 150.842 37.3988L148.564 43.4217L147.713 43.3492L146.863 43.2766L143.619 34.7951C141.807 30.0564 140.141 26.0638 139.843 25.7481C139.55 25.437 139.068 25.1826 138.772 25.1826ZM187.507 25.2857C187.466 25.1934 187.466 24.8618 187.466 24.8618C187.466 24.8618 187.457 24.7422 187.507 24.6785C187.557 24.6149 187.575 24.6132 187.754 24.5961L187.756 24.596C188.414 24.5334 189.734 24.428 190.836 24.38C190.937 24.3756 191.049 24.3705 191.171 24.3649L191.173 24.3648H191.175C192.388 24.3098 194.559 24.2361 196.05 24.3106C198.912 24.4536 200.947 25.8369 201.641 28.1227C202.334 30.4084 201.967 32.554 201.022 33.9198C200.077 35.2856 198.487 36.4615 195.844 36.385C193.663 36.3218 193.079 35.9133 192.613 35.587C192.514 35.518 192.421 35.4526 192.319 35.3951V38.3101C192.342 40.2981 192.358 41.2529 192.512 41.6064C192.72 42.0822 193.188 42.3753 194.102 42.6C194.102 42.6 194.515 42.6969 194.622 42.8002C194.728 42.9035 194.728 43.1329 194.728 43.1329C194.728 43.1329 194.75 43.3475 194.665 43.4568C194.579 43.5661 194.414 43.5443 194.414 43.5443L190.368 43.5117L187.929 43.5053C187.929 43.5053 187.673 43.5543 187.577 43.4513C187.481 43.3482 187.49 43.1335 187.49 43.1335C187.49 43.1335 187.511 42.9022 187.623 42.7987C187.735 42.695 188.151 42.5793 188.151 42.5793C189.092 42.3152 189.5 42.0358 189.713 41.5095C189.885 41.0851 189.886 40.2983 189.884 33.877C189.883 27.7875 189.874 26.6516 189.734 26.3249C189.528 25.8413 189.01 25.7132 188.273 25.5307C188.127 25.4945 187.972 25.4562 187.81 25.4126C187.81 25.4126 187.548 25.3779 187.507 25.2857ZM199.286 30.2546C199.286 31.2531 199.269 32.8164 198.206 33.8157C197.142 34.815 195.049 35.0886 193.629 34.8103C193.181 34.7227 192.925 34.5875 192.727 34.4833L192.708 34.4729L192.344 34.2814L192.323 30.773C192.31 28.5747 192.333 27.1425 192.384 26.9378C192.432 25.7787 194.141 25.6345 194.977 25.6774C198.551 25.6774 199.182 28.6888 199.286 30.2546ZM176.284 24.3472C176.284 24.3472 176.109 24.4142 175.844 24.5145L174.89 25.0074L174.203 26.723C173.825 27.6666 173.134 29.3987 172.667 30.5722C171.816 32.7096 171.254 34.1138 170.663 35.5795C170.489 36.0106 169.964 37.3234 169.496 38.4969C169.029 39.6702 168.561 40.7869 168.458 40.9784C168.44 41.0103 168.422 41.0446 168.403 41.0808C168.141 41.5724 167.687 42.4264 166.884 42.5555C166.884 42.5555 166.443 42.5989 166.28 42.7603C166.116 42.9218 166.132 43.0538 166.132 43.0538V43.2572C166.132 43.2572 166.147 43.3558 166.24 43.4048C166.332 43.454 166.457 43.4568 166.457 43.4568L169.393 43.4234H172.427C172.427 43.4234 172.641 43.4485 172.724 43.3799C172.807 43.3113 172.83 43.2095 172.83 43.2095V42.9953C172.83 42.9953 172.787 42.7631 172.667 42.6724C172.547 42.5819 172.097 42.5199 172.097 42.5199C170.882 42.3602 170.673 41.4416 170.823 40.6156C170.897 40.2097 171.385 38.7084 171.934 37.1969L172.125 36.6745L175.304 36.6502C177.052 36.6368 178.562 36.6459 178.658 36.6704C178.796 36.7053 178.989 37.0975 179.557 38.4948C180.416 40.6118 180.485 40.8697 180.294 41.2657C180.283 41.2899 180.27 41.3164 180.257 41.3451C180.079 41.7282 179.732 42.4724 178.858 42.5482C178.858 42.5482 178.395 42.5642 178.28 42.7028C178.164 42.8415 178.189 43.001 178.189 43.001V43.2129C178.189 43.2129 178.22 43.3371 178.28 43.3863C178.339 43.4355 178.44 43.4231 178.44 43.4231L181.325 43.4023L185.382 43.4021C185.382 43.4021 185.541 43.4191 185.584 43.358C185.627 43.2968 185.636 43.2248 185.636 43.2248V42.9433C185.636 42.9433 185.619 42.7936 185.541 42.7111C185.463 42.6287 184.937 42.5416 184.937 42.5416C184.265 42.4332 183.93 41.8786 183.681 41.4656C183.617 41.3602 183.559 41.264 183.503 41.1869C183.387 41.0295 182.975 40.1669 182.652 39.3373C182.329 38.5076 181.6 36.6334 181.032 35.1727C180.464 33.7119 179.672 31.6741 179.272 30.6444C178.871 29.6146 178.11 27.6552 177.58 26.2901C177.493 26.0661 177.415 25.8649 177.345 25.6847C176.99 24.768 176.846 24.3973 176.807 24.3472C176.679 24.1846 176.284 24.3472 176.284 24.3472ZM176.095 29.9254C175.967 29.6142 175.741 29.0558 175.594 28.6846C175.326 28.01 175.225 27.8545 175.142 27.9939C175.118 28.0346 174.949 28.4957 174.767 29.0187C173.591 32.4044 173.058 33.9288 172.952 34.2161C172.884 34.3967 172.83 34.5828 172.83 34.6297C172.83 34.6837 173.786 34.7151 175.426 34.7151C176.854 34.7151 178.022 34.6974 178.022 34.6757C178.022 34.6541 177.894 34.3309 177.739 33.9573C177.583 33.5837 177.202 32.6511 176.892 31.8848C176.582 31.1185 176.223 30.2368 176.095 29.9254Z" fill="white"/>
</g>
<defs>
<clipPath id="clip0_3206_1024">
<rect width="202" height="55" fill="white"/>
</clipPath>
</defs>
</svg>